<svg xmlns="http://www.w3.org/2000/svg" xmlns:xlink="http://www.w3.org/1999/xlink" version="1.1" x="0px" y="0px" viewBox="0 0 287.394 342.93999999999994" style="enable-background:new 0 0 287.394 274.352;" xml:space="preserve"><g><polygon points="143,92.499 126.395,92.499 126.395,10.501 284.393,10.501 284.393,92.499 163,92.499 163,95.5 287.394,95.5    287.394,7.5 123.394,7.5 123.394,95.5 143,95.5  "/><path d="M163,89.501h40.895v-76h-74.498v76H143v-3.91v-6h6h8h6v6V89.501z M164.961,58.451l-1.234-1.235l11.42-11.421l1.234,1.235   L164.961,58.451z M166.581,37.23l1.234,1.234l-11.421,11.422l-1.234-1.235L166.581,37.23z M148.755,66.091l-1.235-1.234   l35.267-35.267l1.235,1.235L148.755,66.091z"/><path d="M206.895,89.501h74.498v-76h-74.498V89.501z M251.293,71.45l-1.232-1.234l11.42-11.422l1.234,1.236L251.293,71.45z    M270.355,43.824l-35.267,35.267l-1.234-1.234l35.266-35.268L270.355,43.824z M254.149,51.464l-11.421,11.421l-1.233-1.235   l11.42-11.42L254.149,51.464z M229.877,22.238c-2.791,2.369-4.566,5.898-4.566,9.845c0,7.134,5.783,12.917,12.916,12.917   c0.456,0,0.906-0.024,1.35-0.071c-2.252,1.912-5.164,3.071-8.35,3.071c-7.133,0-12.916-5.783-12.916-12.917   C218.311,28.406,223.379,22.913,229.877,22.238z"/><path d="M77.959,73.061c-0.883,1.096,0.44,2.851,1.318,1.758c2.455-3.053,3.527-7.471,2.717-11.805   c-0.807-4.314-3.883-6.391-2.22-11.311c0.646-1.914,1.903-3.711,3.18-4.938c0.968-0.928,0.037-3.088-0.941-2.148   c-2.44,2.344-4.283,5.684-4.681,9.703c-0.43,4.332,2.769,7.113,3.129,11.18C80.703,68.238,79.424,71.236,77.959,73.061z"/><path d="M88.892,73.061c-0.882,1.096,0.44,2.851,1.318,1.758c2.455-3.053,3.527-7.471,2.718-11.805   c-0.807-4.314-3.884-6.391-2.221-11.311c0.646-1.914,1.903-3.711,3.18-4.938c0.967-0.928,0.037-3.088-0.941-2.148   c-2.439,2.344-4.283,5.684-4.682,9.703c-0.428,4.332,2.77,7.113,3.13,11.18C91.637,68.238,90.357,71.236,88.892,73.061z"/><path d="M99.823,73.061c-0.882,1.096,0.441,2.851,1.319,1.758c2.454-3.053,3.526-7.471,2.717-11.805   c-0.806-4.314-3.884-6.391-2.22-11.311c0.646-1.914,1.903-3.711,3.179-4.938c0.968-0.928,0.038-3.088-0.94-2.148   c-2.44,2.344-4.282,5.684-4.682,9.703c-0.429,4.332,2.768,7.113,3.129,11.18C102.568,68.238,101.288,71.236,99.823,73.061z"/><ellipse transform="matrix(0.2268 -0.9739 0.9739 0.2268 -33.4403 170.6933)" cx="90.785" cy="106.408" rx="22.493" ry="22.495"/><path d="M4.753,222.226c0.257,3.951,3.526,7.014,7.485,7.014H35.69l1.208,12.164c-23.656,1.168-30.403,11.088-30.808,11.924   l-0.42,0.705v4.483c-3.268,1.048-5.635,4.108-5.635,7.725c0,4.48,3.633,8.111,8.113,8.111c4.48,0,8.111-3.631,8.111-8.111   c0-3.217-1.876-5.988-4.59-7.3v-3.063c1.611-1.789,7.926-7.608,25.823-8.473l1.112,11.209c-3.126,1.126-5.365,4.111-5.365,7.626   c0,4.48,3.631,8.111,8.111,8.111c4.48,0,8.113-3.631,8.113-8.111c0-3.128-1.773-5.837-4.366-7.192l1.157-11.65   c10.474,0.498,16.998,2.731,20.906,4.82c2.218,1.188,3.605,2.333,4.415,3.129c0.202,0.199,0.368,0.375,0.502,0.525v2.928   c-2.871,1.25-4.88,4.109-4.88,7.441c0,4.48,3.631,8.111,8.111,8.111c4.482,0,8.113-3.631,8.113-8.111   c0-3.507-2.229-6.485-5.346-7.618v-4.59l-0.419-0.705c-0.404-0.836-7.151-10.756-30.809-11.924l1.208-12.164h23.179   c4.142,0,7.499-3.357,7.499-7.5c0-4.141-3.357-7.5-7.499-7.5H19.266l-4.28-66.135c-0.269-4.133-3.837-7.267-7.97-7   c-4.134,0.27-7.266,3.838-7,7.97L4.753,222.226z"/><path d="M72.501,175.392v2.26l-9.177,2.17c0.084-2.846,0.286-5.707,0.582-8.558c-0.089-0.122-0.188-0.234-0.272-0.362   l-18.997-28.998c-1.463-2.234-1.97-4.904-1.427-7.52c0.545-2.614,2.076-4.861,4.309-6.324c1.635-1.07,3.527-1.637,5.473-1.637   c3.388,0,6.517,1.689,8.371,4.521l7.51,11.462c0.1-0.498,0.202-1.007,0.297-1.491c2.869-9.953-0.885-21.865-9.42-23.992   c-8.537-2.129-20.912,2.508-25.947,17.15c-6.805,20.174-8.268,33.305-5.682,55.519c3.129,16.102,14.164,17.754,23.328,17.637   c2.342-0.029,4.35-0.117,6.03-0.462c0.548-0.055,1.097-0.133,1.647-0.263l31.441-7.434l-8.781,40.362   c-1.469,6.744,2.811,13.402,9.557,14.871c0.896,0.195,1.79,0.289,2.67,0.289c5.752,0,10.928-3.995,12.201-9.846l13-59.751   c0.395-1.815,0.354-3.654-0.043-5.406h70.829v94.5h10.5v-94.5h15.167v-10H96.959l-22.574,5.546   C73.77,175.286,73.137,175.36,72.501,175.392z"/><polygon points="157.001,85.59 149.001,85.59 149.001,153.59 157.001,153.59 157.001,124.59 163,124.59 166.667,124.59    166.667,160.59 148.752,160.59 148.752,164.59 189.584,164.59 189.584,160.59 171.667,160.59 171.667,119.59 163,119.59    157.001,119.59  "/><path d="M115.257,164.59h21.077v-4h-17.418C118.095,162.214,116.839,163.61,115.257,164.59z"/><path d="M108.094,148.321l-32.506,7.982L59.692,132.04c-2.42-3.695-7.38-4.728-11.074-2.308c-3.695,2.421-4.729,7.38-2.308,11.075   l18.999,28.999c1.498,2.287,4.047,3.615,6.704,3.615c0.63,0,1.267-0.075,1.896-0.23l37.999-9.334   c4.291-1.055,6.915-5.386,5.862-9.678C116.716,149.89,112.383,147.267,108.094,148.321z"/><path d="M39.394,63c17.396,0,31.5-14.103,31.5-31.5c0-17.396-14.104-31.5-31.5-31.5c-17.396,0-31.5,14.104-31.5,31.5   C7.894,48.897,21.997,63,39.394,63z M39.394,3.998c15.163,0,27.5,12.338,27.5,27.502c0,15.164-12.337,27.5-27.5,27.5   c-15.163,0-27.502-12.336-27.502-27.5C11.892,16.336,24.231,3.998,39.394,3.998z"/><path d="M39.657,35.45l15.618,7.903l1.805-3.567l-14.519-7.351V10.167h-4v2v21.5C38.562,34.417,38.986,35.11,39.657,35.45z"/></g><text x="0" y="289.352" fill="#000000" font-size="5px" font-weight="bold" font-family="'Helvetica Neue', Helvetica, Arial-Unicode, Arial, Sans-serif">Created by Gan Khoon Lay</text><text x="0" y="294.352" fill="#000000" font-size="5px" font-weight="bold" font-family="'Helvetica Neue', Helvetica, Arial-Unicode, Arial, Sans-serif">from the Noun Project</text></svg>